<svg width="200" height="70" viewBox="0 0 200 70" fill="none" xmlns="http://www.w3.org/2000/svg">
<path d="M81.3543 57.352H83.8129V63.9144H80.2863C73.0057 63.9144 67.1022 58.0124 67.1022 50.7304V27.233H61.4062V21.7718H67.1022V5.30347H73.6541V21.7718H82.5965V27.233H73.6541V49.6518C73.6541 53.9056 77.102 57.3535 81.3558 57.3535L81.3543 57.352Z" fill="white"/>
<path d="M131.004 45.4874C132.743 53.3951 132.776 60.6878 132.732 63.0889C132.72 63.6282 132.71 63.9145 132.71 63.9145H126.079C126.156 63.2813 126.221 62.6284 126.273 61.9603C126.499 58.9472 126.379 56.1689 126.079 53.6935C124.89 55.5447 123.458 57.1854 121.762 58.5063C121.74 58.5291 121.719 58.5397 121.696 58.5609C115.452 64.0902 106.001 65.2355 98.5551 61.0726C91.5942 57.1732 87.3207 48.8686 88.1796 40.8943C89.0491 32.9744 94.9754 25.7393 102.609 23.3261C108.809 21.3659 117.964 22.3899 123.217 28.0526C123.416 28.2616 123.613 28.4813 123.799 28.7131C124.575 29.6523 125.349 30.593 126.123 31.5323C126.338 29.6402 126.449 27.489 126.344 25.1273C126.294 24.0078 126.2 6.30031 126.078 5.302H132.389C132.389 5.302 132.399 5.37926 132.399 5.54438C132.432 6.18367 132.51 24.7153 132.454 27.3254C132.366 31.4444 131.927 37.3919 130.439 43.1969C130.649 43.9574 130.825 44.7269 131.001 45.4874H131.004ZM114.551 55.5993C118.989 53.2648 122.49 48.4066 123.714 42.9106C123.725 42.8879 123.725 42.856 123.725 42.8333L123.79 42.547L123.736 42.2607C122.392 35.6406 116.334 28.7903 108.47 28.7903C107.853 28.7903 107.237 28.8343 106.631 28.9221C100.474 29.7705 95.2647 35.0574 94.5043 41.2139C93.7332 47.3825 97.5098 53.7814 103.282 56.1159C104.999 56.8112 106.74 57.152 108.447 57.152C110.541 57.152 112.6 56.6355 114.549 55.5993H114.551Z" fill="white"/>
<path d="M192.965 21.2917H199.998L186.716 63.9161H179.001L168.568 30.428L158.124 63.9161H150.419L137.137 21.2917H144.157L154.266 53.7618L164.385 21.2917H172.749L182.856 53.7512L192.963 21.2917H192.965Z" fill="white"/>
<path d="M52.2383 0C54.1765 0 55.748 1.57154 55.748 3.50977V65.7207C55.748 67.6589 54.1765 69.2305 52.2383 69.2305H3.50977C1.57154 69.2305 0 67.6589 0 65.7207V3.50977C0 1.57154 1.57154 0 3.50977 0H52.2383ZM4.24121 38.6299V63.9287H51.5059V38.6299H4.24121ZM24.1465 46.1973L19.0635 51.2793L24.1465 56.3613L21.0859 59.4219L13.0273 51.1777L13.3164 50.9072L21.0859 43.1367L24.1465 46.1973ZM42.5156 50.9082L42.8037 51.1777L34.7441 59.4219L31.6846 56.3613L36.7676 51.2793L31.6846 46.1973L34.7441 43.1367L42.5156 50.9082ZM14.3652 5.30176C8.78132 5.3018 4.24226 10.0793 4.24219 15.9482V30.5674H6.84766V15.9482C6.84773 11.5914 10.2246 8.04497 14.3652 8.04492C18.5059 8.04492 21.8759 11.5905 21.876 15.9482V30.5674H24.4814V15.9482C24.4814 10.0792 19.9492 5.30176 14.3652 5.30176ZM39.624 5.30176C33.0467 5.30179 27.6924 10.9709 27.6924 17.9346C27.6924 24.8983 33.0466 30.5674 39.624 30.5674C43.2802 30.5674 46.6842 28.8244 48.9707 25.7803L49.0957 25.6055L46.9473 24.2959L46.8555 24.415C45.0506 26.6761 42.4189 27.9717 39.623 27.9717C36.1853 27.9716 33.0063 25.9837 31.334 22.7852L31.1426 22.4209L31.3604 22.0645C32.3783 20.3988 35.1616 19.2363 38.123 19.2363H51.4951L51.5088 19.0615C51.5482 18.6422 51.5615 18.2857 51.5615 17.9355C51.5615 17.5854 51.5482 17.2219 51.5088 16.8018C51.2375 13.5755 49.8034 10.7054 47.6621 8.63379C45.5269 6.56219 42.6849 5.30176 39.624 5.30176ZM39.624 7.90625C44.0591 7.90625 47.9528 11.2237 48.8848 15.7871L49.0566 16.6338H38.123C35.4588 16.6338 32.9927 17.3542 31.1816 18.6562L30.1709 19.3838L30.1455 17.9355C30.1455 12.4068 34.4021 7.90628 39.624 7.90625Z" fill="#D14124"/>
</svg>
