<svg width="200" height="70" viewBox="0 0 200 70" fill="none" xmlns="http://www.w3.org/2000/svg">
<path d="M81.3543 57.3521H83.8129V63.9146H80.2863C73.0057 63.9146 67.1022 58.0126 67.1022 50.7305V27.2331H61.4062V21.7719H67.1022V5.30359H73.6541V21.7719H82.5965V27.2331H73.6541V49.6519C73.6541 53.9057 77.102 57.3536 81.3558 57.3536L81.3543 57.3521Z" fill="#1E1E1E"/>
<path d="M131.004 45.4875C132.743 53.3952 132.776 60.6879 132.732 63.089C132.72 63.6283 132.71 63.9146 132.71 63.9146H126.079C126.156 63.2814 126.221 62.6285 126.273 61.9604C126.499 58.9473 126.379 56.169 126.079 53.6937C124.89 55.5449 123.458 57.1855 121.762 58.5065C121.74 58.5292 121.719 58.5398 121.696 58.561C115.452 64.0903 106.001 65.2356 98.5551 61.0727C91.5942 57.1734 87.3207 48.8688 88.1796 40.8944C89.0491 32.9746 94.9754 25.7395 102.609 23.3262C108.809 21.366 117.964 22.39 123.217 28.0527C123.416 28.2617 123.613 28.4814 123.799 28.7132C124.575 29.6524 125.349 30.5932 126.123 31.5324C126.338 29.6403 126.449 27.4892 126.344 25.1274C126.294 24.0079 126.2 6.30043 126.078 5.30212H132.389C132.389 5.30212 132.399 5.37938 132.399 5.54451C132.432 6.18379 132.51 24.7154 132.454 27.3255C132.366 31.4445 131.927 37.392 130.439 43.197C130.649 43.9575 130.825 44.7271 131.001 45.4875H131.004ZM114.551 55.5994C118.989 53.265 122.49 48.4067 123.714 42.9107C123.725 42.888 123.725 42.8562 123.725 42.8334L123.79 42.5471L123.736 42.2608C122.392 35.6408 116.334 28.7904 108.47 28.7904C107.853 28.7904 107.237 28.8344 106.631 28.9222C100.474 29.7706 95.2647 35.0575 94.5043 41.214C93.7332 47.3827 97.5098 53.7815 103.282 56.116C104.999 56.8113 106.74 57.1522 108.447 57.1522C110.541 57.1522 112.6 56.6356 114.549 55.5994H114.551Z" fill="#1E1E1E"/>
<path d="M192.965 21.2917H199.998L186.716 63.9161H179.001L168.568 30.428L158.124 63.9161H150.419L137.137 21.2917H144.157L154.266 53.7618L164.385 21.2917H172.749L182.856 53.7512L192.963 21.2917H192.965Z" fill="#1E1E1E"/>
<path d="M52.2383 0C54.1765 0 55.748 1.57154 55.748 3.50977V65.7207C55.748 67.6589 54.1765 69.2305 52.2383 69.2305H3.50977C1.57154 69.2305 0 67.6589 0 65.7207V3.50977C0 1.57154 1.57154 0 3.50977 0H52.2383ZM4.24121 38.6299V63.9287H51.5059V38.6299H4.24121ZM24.1465 46.1973L19.0635 51.2793L24.1465 56.3613L21.0859 59.4219L13.0273 51.1777L13.3164 50.9072L21.0859 43.1367L24.1465 46.1973ZM42.5156 50.9082L42.8037 51.1777L34.7441 59.4219L31.6846 56.3613L36.7676 51.2793L31.6846 46.1973L34.7441 43.1367L42.5156 50.9082ZM14.3652 5.30176C8.78132 5.3018 4.24226 10.0793 4.24219 15.9482V30.5674H6.84766V15.9482C6.84773 11.5914 10.2246 8.04497 14.3652 8.04492C18.5059 8.04492 21.8759 11.5905 21.876 15.9482V30.5674H24.4814V15.9482C24.4814 10.0792 19.9492 5.30176 14.3652 5.30176ZM39.624 5.30176C33.0467 5.30179 27.6924 10.9709 27.6924 17.9346C27.6924 24.8983 33.0466 30.5674 39.624 30.5674C43.2802 30.5674 46.6842 28.8244 48.9707 25.7803L49.0957 25.6055L46.9473 24.2959L46.8555 24.415C45.0506 26.6761 42.4189 27.9717 39.623 27.9717C36.1853 27.9716 33.0063 25.9837 31.334 22.7852L31.1426 22.4209L31.3604 22.0645C32.3783 20.3988 35.1616 19.2363 38.123 19.2363H51.4951L51.5088 19.0615C51.5482 18.6422 51.5615 18.2857 51.5615 17.9355C51.5615 17.5854 51.5482 17.2219 51.5088 16.8018C51.2375 13.5755 49.8034 10.7054 47.6621 8.63379C45.5269 6.56219 42.6849 5.30176 39.624 5.30176ZM39.624 7.90625C44.0591 7.90625 47.9528 11.2237 48.8848 15.7871L49.0566 16.6338H38.123C35.4588 16.6338 32.9927 17.3542 31.1816 18.6562L30.1709 19.3838L30.1455 17.9355C30.1455 12.4068 34.4021 7.90628 39.624 7.90625Z" fill="#D14124"/>
</svg>
